<svg xmlns="http://www.w3.org/2000/svg" viewBox="0 0 1200 720" role="img" aria-labelledby="title desc">
 <title id="title">CipherOps AI</title><desc id="desc">CipherOps AI cybersecurity shield and lock over a digital globe.</desc>
 <defs><radialGradient id="glow"><stop stop-color="#063f72" stop-opacity=".75"/><stop offset="1" stop-color="#02070d" stop-opacity="0"/></radialGradient><linearGradient id="cyan" x1="0" y1="0" x2="1" y2="1"><stop stop-color="#45f5ff"/><stop offset=".52" stop-color="#0089ff"/><stop offset="1" stop-color="#30e7ff"/></linearGradient><linearGradient id="silver" x1="0" y1="0" x2="0" y2="1"><stop stop-color="#fff"/><stop offset=".52" stop-color="#dce7f2"/><stop offset="1" stop-color="#8092a7"/></linearGradient><radialGradient id="sphere"><stop stop-color="#043b70" stop-opacity=".6"/><stop offset="1" stop-color="#03101d" stop-opacity="0"/></radialGradient><filter id="blur"><feGaussianBlur stdDeviation="22"/></filter><filter id="shine" x="-.5" y="-.5" width="2" height="2"><feGaussianBlur stdDeviation="8" result="b"/><feMerge><feMergeNode in="b"/><feMergeNode in="SourceGraphic"/></feMerge></filter><pattern id="dots" width="12" height="12" patternUnits="userSpaceOnUse"><circle cx="2" cy="2" r="1.8" fill="#087bda" opacity=".65"/></pattern></defs>
 <rect width="1200" height="720" rx="24" fill="#02070d"/><ellipse cx="600" cy="310" rx="440" ry="280" fill="url(#glow)" filter="url(#blur)"/><circle cx="600" cy="296" r="226" fill="url(#sphere)" stroke="#087fe2" stroke-opacity=".35" stroke-width="2"/><circle cx="600" cy="296" r="208" fill="url(#dots)" opacity=".7"/>
 <path d="M210 326a391 244 0 0 1 767-36" fill="none" stroke="url(#cyan)" stroke-width="12" stroke-linecap="round" filter="url(#shine)"/><path d="M1002 330a405 257 0 0 1-191 220M190 496a405 257 0 0 1-29-180" fill="none" stroke="#078cf4" stroke-width="7" stroke-linecap="round" opacity=".85"/><g fill="#38eaff" filter="url(#shine)"><circle cx="241" cy="191" r="12"/><circle cx="923" cy="167" r="12"/><circle cx="1010" cy="377" r="10"/><circle cx="198" cy="439" r="10"/></g>
 <path d="m600 169 204 112v180c0 99-84 173-204 224-120-51-204-125-204-224V281z" fill="#051525" stroke="url(#silver)" stroke-width="13"/><path d="m600 192 178 98v166c0 76-66 139-178 190V192z" fill="#061b30" stroke="#13dfff" stroke-opacity=".65" stroke-width="4"/><path d="m600 192-178 98v166c0 76 66 139 178 190V192z" fill="#092b54" stroke="#128cff" stroke-opacity=".6" stroke-width="4"/>
 <path d="M520 354v-28a80 80 0 0 1 160 0v28" fill="none" stroke="url(#cyan)" stroke-width="22" stroke-linecap="round" filter="url(#shine)"/><path d="M503 350h194a18 18 0 0 1 18 18v93a18 18 0 0 1-18 18H503a18 18 0 0 1-18-18v-93a18 18 0 0 1 18-18" fill="url(#cyan)" stroke="#b7fbff" stroke-width="3"/><circle cx="600" cy="396" r="15" fill="#03121e"/><path d="M594 407h12l7 34h-26z" fill="#03121e"/>
 <text x="600" y="635" text-anchor="middle" font-family="Arial,sans-serif" font-size="70" font-weight="700" letter-spacing="5" fill="url(#silver)">CIPHER<tspan fill="url(#cyan)">OPS</tspan></text><path d="M265 681h260m410 0H675" stroke="url(#cyan)" stroke-width="3"/><text x="600" y="698" text-anchor="middle" font-family="Arial,sans-serif" font-size="30" font-weight="700" letter-spacing="12" fill="#24dcf6">AI</text>
</svg>
